<svg xmlns="http://www.w3.org/2000/svg" viewBox="0 0 100 125"><path d="M99.04 20.58c-.01-.06-.01-.12-.03-.18-.02-.05-.06-.09-.09-.13-.03-.05-.06-.1-.1-.14s-.09-.07-.141-.1c-.04-.03-.08-.06-.13-.08-.05-.03-.109-.03-.17-.04-.05-.01-.1-.03-.16-.03l-6.21-.04-.81-1.22c0-.01-.01-.01-.01-.02l-.061-.06c-.03-.04-.07-.07-.11-.1-.02-.02-.039-.05-.069-.07-.021-.01-.05-.02-.07-.03a.578.578 0 0 0-.14-.05c-.03-.01-.07-.03-.101-.04-.01 0-.01 0-.02-.01C71.93 15.31 56.3 16.39 50.8 21c-.44.37-.8.75-1.09 1.15-.3-.42-.67-.83-1.13-1.21-4.3-3.61-16.89-6.21-39.3-2.7-.01.01-.01.01-.02.01-.03.01-.06.03-.1.04-.05.01-.09.03-.14.05-.02.01-.05.02-.07.03-.02.02-.04.05-.07.07-.04.03-.08.06-.11.1l-.06.06c0 .01-.01.01-.01.02l-.81 1.22-6.2.04c-.06 0-.11.02-.16.03-.06.01-.12.01-.17.04-.05.01-.08.05-.12.08-.06.03-.11.06-.16.1-.03.03-.05.08-.08.12-.03.05-.07.09-.1.15-.02.05-.02.11-.03.16-.01.06-.03.11-.03.17v61.31c0 .06.02.1.03.15.01.06.01.11.03.16.02.061.05.101.08.15.03.04.06.09.09.13.04.04.09.07.13.101.05.029.09.069.14.09.05.02.11.029.16.04.05.01.09.04.15.04 10.33.55 19.34-.78 26.58-1.851 6.4-.95 11.46-1.7 13.12-.26.28.24.65.68.65 1.76 0 .47.38.851.86.851h14.19c.47 0 .851-.381.851-.851 0-1.069.369-1.52.649-1.76 1.67-1.44 6.73-.69 13.13.26 7.24 1.07 16.25 2.4 26.58 1.851.061 0 .101-.03.15-.04.05-.011.109-.021.16-.04.05-.021.1-.061.14-.101.04-.029.09-.05.12-.09.05-.04.07-.09.1-.14.03-.05.061-.09.08-.13a.545.545 0 0 0 .03-.181c.01-.04.03-.09.03-.14V20.73c0-.05-.02-.1-.03-.15zm-7.72 1.33l1.989 3v48.82l-2.34-3.36.351-48.46zm1.27 53.79c-7.229.43-12.54-.38-17.24-1.101-7.65-1.189-13.7-2.119-23.22 3.431h-1.22c.3-1.49 1.32-3.021 2.92-4.32 3.58-2.91 12.99-7.05 35.78-2.3l2.98 4.29zM50.56 24.63v-.02c.021-.79.471-1.56 1.341-2.29 4.159-3.49 17.42-5.58 37.72-2.49l-.351 49.76c-22.979-4.66-32.739-.28-36.52 2.79-.77.62-1.42 1.3-1.95 2.01l-.24-49.74v-.02zm-3.08-2.38c.89.75 1.35 1.54 1.37 2.36v.05l.23 49.68a11.77 11.77 0 0 0-1.91-1.96c-3.78-3.07-13.54-7.45-36.53-2.79l-.36-49.76c21.4-3.26 33.41-.75 37.2 2.42zM10.3 71.41c22.79-4.76 32.21-.61 35.79 2.3 1.61 1.3 2.63 2.83 2.92 4.32h-1.24c-9.51-5.55-15.56-4.62-23.21-3.431-4.7.721-10.01 1.53-17.24 1.101l2.98-4.29zm-1.72-49.5l.36 48.46-2.34 3.36V24.91l1.98-3z"/><text y="115" font-size="5" font-weight="bold" font-family="'Helvetica Neue', Helvetica, Arial-Unicode, Arial, Sans-serif">Created by Blake Thompson</text><text y="120" font-size="5" font-weight="bold" font-family="'Helvetica Neue', Helvetica, Arial-Unicode, Arial, Sans-serif">from the Noun Project</text></svg>