<svg 
    height="35"
    width="35"
    xmlns="http://www.w3.org/2000/svg" 
    xmlns:xlink="http://www.w3.org/1999/xlink" 
    xml:space="preserve" 
    version="1.1" 
    style="shape-rendering:geometricPrecision;text-rendering:geometricPrecision;image-rendering:optimizeQuality;" 
    viewBox="0 0 756 950" x="0px" y="0px" 
    fill-rule="evenodd" 
    clip-rule="evenodd">
        <defs>
            <style type="text/css">
                .fil0 {fill:black}
            </style>
        </defs>
        <g>
            <path 
                class="fil0" 
                d="M95 498c43,-49 118,-53 167,-10 49,43 53,118 10,167 -43,49 -118,54 -167,11 -49,-44 -54,-119 -10,-168zm-49 -43c60,-67 158,-80 233,-35l34 -39c-5,-4 -5,-11 -1,-16l8 -9c4,-5 11,-5 16,-1l213 -241 91 -103 10 -11 48 43 -9 11c22,20 45,39 67,59l-29 33 -18 -16 -33 37 18 16 -29 33c-22,-20 -45,-39 -67,-59l-213 241c4,4 5,11 1,16l-8 9c-5,5 -12,6 -17,1l-34 39c54,68 54,168 -6,235 -67,76 -183,83 -259,16 -76,-67 -83,-183 -16,-259z"/>
        </g>
</svg>